<svg xmlns="http://www.w3.org/2000/svg" width="33.004" height="25" viewBox="0 0 33.004 25">
  <path id="cow" d="M36.952,29.007c-.215-4.427-1.04-6.668-2.649-7.158a3.108,3.108,0,0,0-1.37-1.624l-.016-.008-.018-.009a5.542,5.542,0,0,0-2.806-.5c-.1,0-.2,0-.284,0-.675,0-1.481.082-2.414.176a40.423,40.423,0,0,1-4.176.267c-.3,0-.641-.006-1.023-.012l-.484-.007a42,42,0,0,0-6.464.243c-.019-.047-.035-.095-.056-.139a5.463,5.463,0,0,0,1.235-4,.487.487,0,0,0-.889-.219A10.943,10.943,0,0,1,12.988,18.5a6.746,6.746,0,0,0-1.5-.122h-.091a6.735,6.735,0,0,0-1.5.122,10.943,10.943,0,0,1-2.551-2.474.487.487,0,0,0-.889.219,5.463,5.463,0,0,0,1.235,4c-.025.056-.047.117-.069.176a4.168,4.168,0,0,0-2.657.541.488.488,0,0,0-.106.68A3.407,3.407,0,0,0,7.331,23.15c.01.115.016.226.03.344.459,3.9,1.625,4.948,3,5.211.514.495.969.959,1.35,1.38a16.322,16.322,0,0,1,1.07,1.435,39.9,39.9,0,0,1,.32,8.74.488.488,0,0,0,.484.547h1.593a.488.488,0,0,0,.478-.39c.03-.147.555-2.746.9-4.506.133,2.6.116,4.382.116,4.4a.487.487,0,0,0,.487.493h1.972a.487.487,0,0,0,.48-.406c.008-.045.761-4.479.964-7.151a.488.488,0,0,0-.152-.392,2.735,2.735,0,0,1-.336-.393l.7.013q.545.008,1.063.008h.056c.272,0,.536,0,.8-.005l.178,0q.34-.005.667-.014l.2-.006c.264-.008.524-.017.772-.028.322-.015.623-.034.914-.056A7.155,7.155,0,0,0,27.4,34.339l-.551,5.938a.488.488,0,0,0,.485.533h1.973a.487.487,0,0,0,.48-.406c.007-.04.613-3.607.884-6.27a4.3,4.3,0,0,0,.388.219l-.55,5.924a.487.487,0,0,0,.485.533h1.975a.487.487,0,0,0,.48-.406c.046-.273,1.136-6.709,1-8.688-.035-.514-.087-.977-.137-1.425a10.4,10.4,0,0,1,.084-3.844,11.206,11.206,0,0,0,.218-3.249c.754.838,1.21,2.793,1.36,5.839-.372.2-.757.691-.757,1.891a3.914,3.914,0,0,0,.9,2.323.487.487,0,0,0,.734,0,3.914,3.914,0,0,0,.9-2.323c0-1.258-.421-1.742-.809-1.921ZM27.493,20.86c.907-.092,1.691-.171,2.316-.171.092,0,.193,0,.3,0a7.143,7.143,0,0,1,1.5.089,23.72,23.72,0,0,0-3.551,3.514c-.324.373-.6.695-.767.85a3.066,3.066,0,0,1-2.755.313A2.343,2.343,0,0,1,23,23.328a8.639,8.639,0,0,0-.456-2.2c.246,0,.474.006.68.006a41.253,41.253,0,0,0,4.274-.273Zm-11.912,1.3a6.259,6.259,0,0,0-.072-.793,3.82,3.82,0,0,1,1.338.145A2.266,2.266,0,0,1,15.582,22.164Zm-.207-4.427a4.737,4.737,0,0,1-.752,1.641,2.841,2.841,0,0,0-.559-.454,12.729,12.729,0,0,0,1.311-1.187ZM8.81,18.924a2.836,2.836,0,0,0-.557.454A4.739,4.739,0,0,1,7.5,17.737,12.733,12.733,0,0,0,8.81,18.924ZM7.365,21.371a6.253,6.253,0,0,0-.072.793,2.266,2.266,0,0,1-1.267-.648,3.816,3.816,0,0,1,1.339-.145Zm.963,2.009a4.194,4.194,0,0,1,.586-3.287,2.985,2.985,0,0,1,2.322-.743h.251a5.478,5.478,0,0,1,1.415.126.471.471,0,0,0,.075.022,2.061,2.061,0,0,1,.984.6,4.186,4.186,0,0,1,.585,3.287c-.521,4.432-1.838,4.433-3.109,4.435a5.673,5.673,0,0,1-.735-.033l-.051-.008c-.994-.152-1.909-.878-2.323-4.4Zm7.717,10.672a.487.487,0,0,0-.174.292c-.16.868-.853,4.317-1.089,5.489h-.654a41.412,41.412,0,0,0-.227-7.252,12.418,12.418,0,0,0,2.258,1.359C16.09,34.013,16.045,34.053,16.045,34.053Zm7.65-2.564-.236.006-.541.011-.347,0-.536,0h-.306c-.256,0-.518,0-.784-.007l-.311-.2c-1.37-.874-2.274-1.452-2.537-2.212a.6.6,0,0,1,.149-.613,2.982,2.982,0,0,1,2.322-.923c1.1.091,1.6.133,2.723,2.883.15.368.3.717.452,1.044Zm5.2,8.345H27.868l.533-5.74a.487.487,0,0,0-.309-.5,4.346,4.346,0,0,1-1.5-1.322,9.492,9.492,0,0,0,2.165-.457,4.647,4.647,0,0,0,1.01,1.576c-.18,2.158-.684,5.327-.867,6.442ZM33.347,30.4c.049.437.1.889.133,1.382a60.586,60.586,0,0,1-.921,8.052H31.531l.533-5.74a.487.487,0,0,0-.306-.5,3.582,3.582,0,0,1-2.175-2.417A.488.488,0,0,0,28.8,30.7c-.268.213-1.148.585-4,.739-.2-.414-.405-.872-.609-1.368-1.151-2.826-1.895-3.348-3.545-3.486a3.967,3.967,0,0,0-3.173,1.3,1.592,1.592,0,0,0-.3,1.529,4.453,4.453,0,0,0,1.938,2.068.482.482,0,0,0-.314.216.487.487,0,0,0-.02.484A5.821,5.821,0,0,0,19.59,33.4c-.181,2.158-.685,5.323-.868,6.436H17.651c0-.971-.04-3.287-.251-6.128a.156.156,0,0,0,0-.02.483.483,0,0,0-.021-.094c0-.009,0-.018-.008-.026a.47.47,0,0,0-.056-.1c-.006-.008-.013-.016-.019-.023a.485.485,0,0,0-.06-.062l-.033-.028a.48.48,0,0,0-.085-.05c-.006,0-.01-.007-.016-.009a10.884,10.884,0,0,1-3.432-2.2c0-.007-.01-.013-.015-.02a17.312,17.312,0,0,0-1.219-1.639c-.186-.206-.392-.423-.61-.647,1.668-.075,3.158-.748,3.692-5.287.014-.119.02-.23.03-.344a3.407,3.407,0,0,0,2.482-1.51.486.486,0,0,0,.033-.517c1.245-.047,2.454-.03,3.384-.014a5.437,5.437,0,0,1,.585,2.329,3.332,3.332,0,0,0,2.179,2.931,4.131,4.131,0,0,0,1.418.244,3.571,3.571,0,0,0,2.343-.765c.2-.189.479-.511.833-.919a20.345,20.345,0,0,1,3.881-3.7c1,.765,1.26,2.454.764,5.021A11.255,11.255,0,0,0,33.347,30.4Zm3.145,1.641a2.5,2.5,0,0,1-.3-1.114c0-.761.181-1.045.3-1.045s.3.284.3,1.045a2.5,2.5,0,0,1-.3,1.114Z" transform="translate(-4.757 -15.809)" fill="#786fff"/>
</svg>
