<svg xmlns="http://www.w3.org/2000/svg" width="25.258" height="29.143" viewBox="0 0 25.258 29.143">
  <g id="rooster" transform="translate(-48 -16)">
    <circle id="Ellipse_13" data-name="Ellipse 13" cx="0.406" cy="0.406" r="0.406" transform="translate(53.378 21.373)" fill="#786fff"/>
    <path id="Path_31" data-name="Path 31" d="M48.485,24.743h1.943v.729a4.155,4.155,0,0,0,.826,2.477,3.177,3.177,0,0,1,.631,1.894V33a5.349,5.349,0,0,0,5.343,5.343h.037A3.908,3.908,0,0,0,59.171,40v.623L58.32,41.9l-2.86,2.383a.486.486,0,0,0,.311.859h7.286a.486.486,0,0,0,.4-.755l-.781-1.171,1.251-1.668a.486.486,0,0,0,.1-.291V39.993A10.218,10.218,0,0,0,71.8,30.086V27.231a1.989,1.989,0,0,1,.586-1.416,2.954,2.954,0,0,0,.871-2.1v-1.4a.486.486,0,0,0-.486-.486,6.354,6.354,0,0,0-3.789,1.263l-2.97,2.227a4.407,4.407,0,0,1-6.695-1.79l-.113-.263a6.371,6.371,0,0,0-3.837-3.536.188.188,0,0,1,.045-.023l.61-.2A3.177,3.177,0,0,0,58.2,16.486.486.486,0,0,0,57.714,16H52.857a2.431,2.431,0,0,0-2.429,2.429v3.887a2.613,2.613,0,0,0-2.4,1.788.486.486,0,0,0,.461.639ZM59,42.6a.485.485,0,0,0,.093-.1l.971-1.457a.486.486,0,0,0,.082-.269v-.517a3.9,3.9,0,0,0,.486.031h.486v.351l-1.339,2.232-1.737,1.3h-.925ZM63.057,41.1,61.7,42.909a.486.486,0,0,0-.016.561l.468.7H59.657l.777-.583a.486.486,0,0,0,.125-.139l1.457-2.429a.486.486,0,0,0,.069-.25v-.5q.492-.023.971-.093ZM58.313,23.649l.113.263A5.378,5.378,0,0,0,66.6,26.1l2.97-2.227a5.381,5.381,0,0,1,2.72-1.046v.89a1.989,1.989,0,0,1-.586,1.416,2.954,2.954,0,0,0-.871,2.1v2.855A9.239,9.239,0,0,1,61.6,39.315h-.971A2.918,2.918,0,0,1,57.714,36.4v-.709a4.84,4.84,0,0,0,1.457.224h6.108a2.149,2.149,0,0,0,1.4-3.781l-2.819-2.416-.632.738,2.819,2.416a1.178,1.178,0,0,1-.766,2.072H59.171a3.89,3.89,0,0,1-3.886-3.886V29.115h-.971v1.943a4.859,4.859,0,0,0,2.429,4.2V36.4a3.879,3.879,0,0,0,.119.955,4.377,4.377,0,0,1-4-4.355V29.843a4.155,4.155,0,0,0-.826-2.477,3.177,3.177,0,0,1-.631-1.894v-.729h.486a.486.486,0,0,0,.486-.486V22.8a.486.486,0,0,0-.486-.486H51.4a1.945,1.945,0,0,1,1.943-1.943A5.4,5.4,0,0,1,58.313,23.649Zm-5.942-6.594v.888h.971v-.971h.971v.971h.971v-.971h1.889a2.207,2.207,0,0,1-1.457,1.611l-.61.2a1.157,1.157,0,0,0-.721.7,6.4,6.4,0,0,0-1.043-.086,2.9,2.9,0,0,0-1.943.744V18.429A1.459,1.459,0,0,1,52.371,17.055Zm-1.864,6.231H51.4v.486H49.339A1.643,1.643,0,0,1,50.507,23.286Z" transform="translate(0 0)" fill="#786fff"/>
    <path id="Path_32" data-name="Path 32" d="M210.031,242.843h.812v-.812h-.812a1.22,1.22,0,0,1-1.218-1.218V240H208v.812A2.033,2.033,0,0,0,210.031,242.843Z" transform="translate(-150.038 -210.105)" fill="#786fff"/>
  </g>
</svg>
