<svg xmlns="http://www.w3.org/2000/svg" width="36.81" height="23.295" viewBox="0 0 36.81 23.295">
  <g id="fish" transform="translate(0.001 -93.989)">
    <g id="Group_27" data-name="Group 27" transform="translate(-0.001 93.989)">
      <g id="Group_26" data-name="Group 26">
        <path id="Path_21" data-name="Path 21" d="M34.3,102.3a18.433,18.433,0,0,0-6.079-3.479l0,0-.007,0a20.042,20.042,0,0,0-3.263-.838,12.178,12.178,0,0,0-6.53-3.938,2.084,2.084,0,0,0-2.551,2.034v2.961a25.8,25.8,0,0,0-7.77,5.6,7.042,7.042,0,0,0-1.8-3.628,8.243,8.243,0,0,0-5.546-1.98.777.777,0,0,0-.75.751,8.243,8.243,0,0,0,1.981,5.545,5.87,5.87,0,0,0,1.7,1.168,6.024,6.024,0,0,0-1.7,1.177A8.246,8.246,0,0,0,0,113.213a.777.777,0,0,0,.75.751l.122,0A8.135,8.135,0,0,0,6.3,111.983,7.089,7.089,0,0,0,8.1,108.292a28.039,28.039,0,0,0,5.132,4.19V115.2a2.09,2.09,0,0,0,2.081,2.088,2.108,2.108,0,0,0,.6-.089,11.781,11.781,0,0,0,3.959-2.124,13.034,13.034,0,0,0,1.885.141,19.525,19.525,0,0,0,6.307-1.06h0c4.814-1.641,8.73-5.089,8.73-7.688C36.809,105.222,35.919,103.745,34.3,102.3ZM3.08,104.225a6.089,6.089,0,0,1-1.486-3.605,6.056,6.056,0,0,1,3.6,1.487,6.015,6.015,0,0,1,1.485,3.555A5.893,5.893,0,0,1,3.08,104.225Zm2.118,6.66a6.085,6.085,0,0,1-3.6,1.485,6.091,6.091,0,0,1,1.485-3.6,6.093,6.093,0,0,1,3.606-1.486A6.057,6.057,0,0,1,5.2,110.885ZM17.422,96.078a.534.534,0,0,1,.2-.42.514.514,0,0,1,.443-.1,10.856,10.856,0,0,1,4.4,2.169q-.354-.013-.705-.013a13.9,13.9,0,0,0-4.345.729Zm-1.944,19.629a.531.531,0,0,1-.474-.083.523.523,0,0,1-.215-.428v-1.828a17.748,17.748,0,0,0,3.064,1.249A9.79,9.79,0,0,1,15.478,115.707Zm6.289-2.049a11.6,11.6,0,0,1-1.983-.175,15.857,15.857,0,0,1-5.372-2.1,26.808,26.808,0,0,1-5.886-4.919,24.724,24.724,0,0,1,8.411-6.189l.015-.006a12.847,12.847,0,0,1,4.815-1,17.6,17.6,0,0,1,2.642.2,18.27,18.27,0,0,1,2,.423,10.148,10.148,0,0,0-2.664,6.746,9.976,9.976,0,0,0,2.57,6.424A17.784,17.784,0,0,1,21.767,113.658Zm6.219-1.123a8.334,8.334,0,0,1-2.684-5.9A8.5,8.5,0,0,1,28.1,100.43c4.446,1.663,7.158,4.6,7.158,6.032C35.256,107.922,32.5,110.881,27.986,112.535Z" transform="translate(0.001 -93.989)" fill="#786fff"/>
      </g>
    </g>
    <g id="Group_29" data-name="Group 29" transform="translate(29.841 105.476)">
      <g id="Group_28" data-name="Group 28">
        <path id="Path_22" data-name="Path 22" d="M419.156,254.253a.8.8,0,0,0-.8.8v.36a.8.8,0,1,0,1.607,0v-.36A.8.8,0,0,0,419.156,254.253Z" transform="translate(-418.352 -254.253)" fill="#786fff"/>
      </g>
    </g>
    <g id="Group_31" data-name="Group 31" transform="translate(21.275 101.008)">
      <g id="Group_30" data-name="Group 30">
        <path id="Path_23" data-name="Path 23" d="M298,192.117a.8.8,0,0,0-1.136.029c-.077.081-.153.166-.226.253a.8.8,0,1,0,1.229,1.036c.053-.062.107-.124.162-.182A.8.8,0,0,0,298,192.117Z" transform="translate(-296.447 -191.896)" fill="#786fff"/>
      </g>
    </g>
    <g id="Group_33" data-name="Group 33" transform="translate(19.746 102.747)">
      <g id="Group_32" data-name="Group 32">
        <path id="Path_24" data-name="Path 24" d="M278.569,226.65a6.586,6.586,0,0,1-1.406-4.28,7.582,7.582,0,0,1,.48-2.695.8.8,0,0,0-1.5-.577,9.207,9.207,0,0,0-.587,3.272,8.2,8.2,0,0,0,1.8,5.334.8.8,0,1,0,1.214-1.054Z" transform="translate(-275.556 -218.583)" fill="#786fff"/>
      </g>
    </g>
  </g>
</svg>
