<svg xmlns="http://www.w3.org/2000/svg" width="28.586" height="19.06" viewBox="0 0 28.586 19.06">
  <g id="Outline" transform="translate(-16 -95.957)">
    <path id="Path_29" data-name="Path 29" d="M44.26,102.655a3.017,3.017,0,0,1-1.779-1.592l-.642-1.391a6.337,6.337,0,0,0-.343-.643,3.334,3.334,0,0,0,1.158-1.075l.414-.622a.476.476,0,0,0-.211-.7l-.877-.371a3.489,3.489,0,0,0-3.2.185l-.133.08a6.366,6.366,0,0,0-2.612-.562H22.389A6.4,6.4,0,0,0,16,102.154h0c0,.022,0,.043,0,.065,0,.043,0,.087,0,.13a6.392,6.392,0,0,0,1.537,4.157,1.7,1.7,0,0,1-.2,2.411l-1.164.97a.476.476,0,0,0-.147.517l1.429,4.288a.476.476,0,0,0,.452.326h1.906a.476.476,0,0,0,.472-.544l-.4-2.791h.484c.131,0,.261-.005.39-.015l.009.074a.475.475,0,0,0,.047.154l1.429,2.859a.476.476,0,0,0,.426.263h1.906a.476.476,0,0,0,.47-.555l-.388-2.329a6.18,6.18,0,0,0,3.845-1.8l.094-.094a11.729,11.729,0,0,0,1.22-.01v1.451a.476.476,0,0,0,.024.151l.953,2.859a.476.476,0,0,0,.452.326h2.382a.476.476,0,0,0,.47-.555l-.453-2.718.26-.585.224.672a.474.474,0,0,0,.056.114l1.906,2.859a.476.476,0,0,0,.4.212h2.382a.476.476,0,0,0,.446-.644l-1.4-3.731v-2.224a5.005,5.005,0,0,0,3.96-1.452l.571-.571,1.778-.444a.476.476,0,0,0,.361-.462v-2.382a.476.476,0,0,0-.326-.452Zm-2.651-5.519.347.147-.1.143a2.384,2.384,0,0,1-.927.822,6.419,6.419,0,0,0-1.292-1.17A2.6,2.6,0,0,1,41.609,97.135ZM24.1,111.206a.476.476,0,0,0-.47.555l.384,2.3H22.964L21.7,111.542l0-.03a5.422,5.422,0,0,0,3.061-2.1l.046.018a11.508,11.508,0,0,0,2.506.684,5.233,5.233,0,0,1-3.213,1.092Zm8.582.555.384,2.3H31.589l-.82-2.46v-1.471a11.568,11.568,0,0,0,2.569-.673l.12.359-.742,1.669A.476.476,0,0,0,32.682,111.761Zm10.952-6.644-1.545.386a.476.476,0,0,0-.221.125l-.664.665a4.054,4.054,0,0,1-3.67,1.111.476.476,0,0,0-.57.467v2.859a.477.477,0,0,0,.03.167l1.188,3.168h-1.44l-1.729-2.593-.927-2.781-.472-1.888-.924.231.377,1.509a10.707,10.707,0,0,1-7.794.045,6.127,6.127,0,0,0,.584-1.565l-.93-.208a5.178,5.178,0,0,1-.747,1.746h0l-.013.019a4.453,4.453,0,0,1-3.8,2.151H19.335a.476.476,0,0,0-.472.544l.4,2.791H18.249l-1.218-3.654.915-.762a2.651,2.651,0,0,0,.316-3.762,5.438,5.438,0,0,1-1.176-2.345,1.429,1.429,0,0,0,1.773-1.387v-.476a.476.476,0,1,1,.953,0v.953h.953v-.953a1.429,1.429,0,0,0-2.859,0v.476a.476.476,0,0,1-.951.044,5.442,5.442,0,0,1,5.434-5.284h13.65a5.452,5.452,0,0,1,4.936,3.158l.642,1.391a3.976,3.976,0,0,0,2.017,1.972Z" transform="translate(0 0)" fill="#786fff"/>
    <path id="Path_30" data-name="Path 30" d="M319.306,122.971a.452.452,0,0,0,.174-.693l-.613-.785a3.84,3.84,0,0,0-3.04-1.494h-.816v.9h.816a2.941,2.941,0,0,1,2.327,1.146l.254.326-.207.091a2.913,2.913,0,0,1-3.278-.648l-.647.632a3.809,3.809,0,0,0,4.288.844Z" transform="translate(-280.296 -22.683)" fill="#786fff"/>
    <circle id="Ellipse_12" data-name="Ellipse 12" cx="0.905" cy="0.905" r="0.905" transform="translate(37.995 101.709)" fill="#786fff"/>
  </g>
</svg>
