<svg xmlns="http://www.w3.org/2000/svg" width="29.091" height="25" viewBox="0 0 29.091 25">
  <g id="meat" transform="translate(0 -35.882)">
    <path id="Path_25" data-name="Path 25" d="M0,48.024c0,3.953,3.88,7.862,8.739,7.862a9.821,9.821,0,0,1,6.8,2.936A7.4,7.4,0,0,0,20.682,61a7.569,7.569,0,0,0,5.959-3.216A12.41,12.41,0,0,0,29.091,50.2V46.8c0-5.274-3.171-10.8-8.239-10.8H17.1a.568.568,0,1,0,0,1.136h3.75c3.916,0,7.1,4.333,7.1,9.659a11.27,11.27,0,0,1-2.213,6.884,6.463,6.463,0,0,1-5.06,2.775,6.337,6.337,0,0,1-4.341-1.848,10.963,10.963,0,0,0-7.6-3.265c-3.837,0-7.232-2.872-7.569-6.4a7.1,7.1,0,0,1,7.069-7.8h3.75a.568.568,0,1,0,0-1.136H8.239a8.258,8.258,0,0,0-6.1,2.7A8.4,8.4,0,0,0,0,44.992Zm8.739,4.453a9.82,9.82,0,0,1,6.8,2.936,7.4,7.4,0,0,0,5.141,2.178,7.569,7.569,0,0,0,5.959-3.216A10.961,10.961,0,0,0,27.7,52.7a10.667,10.667,0,0,1-1.962,4.388,6.463,6.463,0,0,1-5.06,2.775,6.337,6.337,0,0,1-4.341-1.848,10.963,10.963,0,0,0-7.6-3.265c-3.832,0-7.224-2.865-7.568-6.389a9,9,0,0,0,7.568,4.116Z" transform="translate(0 -0.119)" fill="#786fff"/>
    <path id="Path_26" data-name="Path 26" d="M306,218.99a2.99,2.99,0,1,0,2.99-2.99A2.993,2.993,0,0,0,306,218.99Zm2.99-1.9a1.9,1.9,0,1,1-1.9,1.9A1.9,1.9,0,0,1,308.99,217.087Z" transform="translate(-288.408 -169.744)" fill="#786fff"/>
    <path id="Path_27" data-name="Path 27" d="M96.159,102.684a.544.544,0,0,0,.769.769l6.523-6.523a.544.544,0,0,0-.769-.769Z" transform="translate(-90.457 -56.858)" fill="#786fff"/>
    <path id="Path_28" data-name="Path 28" d="M222.683,96.16l-6.523,6.523a.544.544,0,1,0,.769.769l6.523-6.523a.544.544,0,0,0-.769-.769Z" transform="translate(-203.528 -56.858)" fill="#786fff"/>
    <ellipse id="Ellipse_11" data-name="Ellipse 11" cx="1" cy="0.5" rx="1" ry="0.5" transform="translate(13.545 35.9)" fill="#786fff"/>
  </g>
</svg>
