<svg xmlns="http://www.w3.org/2000/svg" width="23.532" height="25" viewBox="0 0 23.532 25">
  <g id="turkey" transform="translate(-15.031 0)">
    <g id="Group_35" data-name="Group 35" transform="translate(25.004 12.846)">
      <g id="Group_34" data-name="Group 34">
        <path id="Path_33" data-name="Path 33" d="M210.85,258.342a7.79,7.79,0,0,0-3.606-.152,6.429,6.429,0,0,0-4.32,2.8.48.48,0,0,0,.355.741c.014,0,1.275.126,2.706.414l-.307.977a.48.48,0,1,0,.915.288l.332-1.055c.207.051.4.1.59.157l.025.007-.326,1.007a.48.48,0,1,0,.913.3l.331-1.021.343.11a8.6,8.6,0,0,0,1.592.427h.037a.48.48,0,0,0,.036-.958,9.319,9.319,0,0,1-1.371-.383c-.257-.083-.522-.168-.8-.255-.168-.052-.339-.1-.509-.152-.329-.095-.69-.186-1.075-.273-.946-.213-1.859-.355-2.49-.44,2.108-2.371,5.477-1.908,6.332-1.624.679.226,1.8.772,1.719,1.892a.48.48,0,1,0,.957.073C213.321,259.925,212.456,258.877,210.85,258.342Z" transform="translate(-202.845 -258.051)" fill="#786fff"/>
      </g>
    </g>
    <g id="Group_37" data-name="Group 37" transform="translate(15.031 0.001)">
      <g id="Group_36" data-name="Group 36">
        <path id="Path_34" data-name="Path 34" d="M37.136,6.63c-.029-.19-.232-.893-.378-1.385a1.587,1.587,0,0,1,1.046.277.508.508,0,0,0,.755-.5c-.024-.2-.613-4.841-3.707-5.01a3.233,3.233,0,0,0-2.778.96c-.82.954-.985,2.548-.5,4.874.215,1.039.651,3.734.86,5.044A11.178,11.178,0,0,0,30.4,10.7a10.182,10.182,0,0,0-4.99,1.233,19.644,19.644,0,0,0-1.844-3.914,3.194,3.194,0,0,0-5.629,2.867,3.194,3.194,0,0,0-1.693,5.544,3.193,3.193,0,0,0,2.664,5.624,2.347,2.347,0,0,0,1.572,1.081,4.93,4.93,0,0,0,5.365-2.18,10.107,10.107,0,0,0,3.284.933v2.092h-1.1a.508.508,0,1,0,0,1.016h5.326a.508.508,0,1,0,0-1.016H32.318V21.8a9.271,9.271,0,0,0,3.563-1.373,5.071,5.071,0,0,0,2.475-3.855c0-.014,0-.027.006-.041.278-3.046-1.221-7.117-1.736-8.409A1.659,1.659,0,0,0,37.136,6.63ZM19.043,20.958c-.063.023-.115.041-.16.055a2.177,2.177,0,0,1-1.5-4.082.508.508,0,0,0,.028-.925A2.177,2.177,0,0,1,18.68,11.9a.508.508,0,0,0,.491-.791,2.186,2.186,0,0,1,.53-3,2.177,2.177,0,0,1,3.037.508,19.2,19.2,0,0,1,1.8,3.9,4.834,4.834,0,0,0-2.1,3.82,4.316,4.316,0,0,0,.692,2.307A20.769,20.769,0,0,1,19.043,20.958Zm4.237.956a3.933,3.933,0,0,1-2.558.238,1.681,1.681,0,0,1-.832-.447,22.927,22.927,0,0,0,3.858-2.261,6.629,6.629,0,0,0,1.21,1.012A3.933,3.933,0,0,1,23.28,21.914Zm8.021,2.07H30.144V21.961c.085,0,.17,0,.255,0q.455,0,.9-.036v2.055Zm6.043-7.52a4.071,4.071,0,0,1-2.028,3.119A8.406,8.406,0,0,1,31.76,20.86h-.006a10.353,10.353,0,0,1-1.355.088,9.239,9.239,0,0,1-4.5-1.109,5.611,5.611,0,0,1-1.676-1.4,3.377,3.377,0,0,1-.772-2.1,3.983,3.983,0,0,1,1.969-3.208l0,0a8.872,8.872,0,0,1,4.976-1.4,9.967,9.967,0,0,1,2.522.317h0c2.648.692,4.427,2.419,4.427,4.3C37.347,16.38,37.347,16.421,37.344,16.464ZM37.116,13.3q-.122-.134-.254-.264A8.056,8.056,0,0,0,33.5,11.144c-.165-1.045-.685-4.3-.934-5.506-.408-1.969-.314-3.317.278-4.006A2.26,2.26,0,0,1,34.8,1.024c1.576.086,2.294,2.061,2.584,3.243a1.741,1.741,0,0,0-1.548.328l-.007.006h0l-.005,0-.031.029-.014.015-.019.021-.017.023-.012.016-.016.027-.009.016c0,.009-.009.018-.013.027l-.008.018c0,.008-.006.017-.009.025l-.007.022-.006.022c0,.009,0,.018-.006.027s0,.013,0,.019,0,.02,0,.03,0,.012,0,.018,0,.021,0,.031,0,.013,0,.02,0,.019,0,.029,0,.018,0,.027,0,.014,0,.021.006.027.01.04l0,.008v.006c.206.684.442,1.505.464,1.641a.589.589,0,0,1-.314.659.348.348,0,0,1-.068.017c-.256.04-.515-.2-.565-.531-.019-.141-.035-1.027-.039-1.767a.508.508,0,0,0-.508-.506h0a.508.508,0,0,0-.505.511c0,.383.011,1.652.05,1.913a1.594,1.594,0,0,0,1.492,1.4A28.647,28.647,0,0,1,37.116,13.3Z" transform="translate(-15.031 -0.001)" fill="#786fff"/>
      </g>
    </g>
    <g id="Group_39" data-name="Group 39" transform="translate(34.445 2.345)">
      <g id="Group_38" data-name="Group 38">
        <path id="Path_35" data-name="Path 35" d="M408.115,50.865a.48.48,0,0,0,0,.959A.48.48,0,0,0,408.115,50.865Z" transform="translate(-407.652 -50.865)" fill="#786fff"/>
      </g>
    </g>
    <g id="Group_41" data-name="Group 41" transform="translate(20.782 9.346)">
      <g id="Group_40" data-name="Group 40">
        <path id="Path_36" data-name="Path 36" d="M132.988,190.942a.48.48,0,0,0,0,.959A.48.48,0,0,0,132.988,190.942Z" transform="translate(-132.525 -190.942)" fill="#786fff"/>
      </g>
    </g>
    <g id="Group_43" data-name="Group 43" transform="translate(17.441 13.522)">
      <g id="Group_42" data-name="Group 42">
        <path id="Path_37" data-name="Path 37" d="M67.78,276.268a.48.48,0,0,0,0,.959A.48.48,0,0,0,67.78,276.268Z" transform="translate(-67.316 -276.268)" fill="#786fff"/>
      </g>
    </g>
    <g id="Group_45" data-name="Group 45" transform="translate(17.025 18.717)">
      <g id="Group_44" data-name="Group 44">
        <path id="Path_38" data-name="Path 38" d="M58.762,382.405a.48.48,0,0,0,0,.959A.48.48,0,0,0,58.762,382.405Z" transform="translate(-58.298 -382.405)" fill="#786fff"/>
      </g>
    </g>
    <g id="Group_47" data-name="Group 47" transform="translate(33.481 16.849)">
      <g id="Group_46" data-name="Group 46">
        <path id="Path_39" data-name="Path 39" d="M392.435,344.251a.48.48,0,0,0,0,.959A.48.48,0,0,0,392.435,344.251Z" transform="translate(-391.972 -344.251)" fill="#786fff"/>
      </g>
    </g>
  </g>
</svg>
