<svg xmlns="http://www.w3.org/2000/svg" width="26.65" height="25" viewBox="0 0 26.65 25">
  <path id="veg" d="M24.482,20.182l-.29-.066c2.81-2.3,3.409-7.414.762-10.077A6.233,6.233,0,0,1,23.327,5.7c0-2.452-1.613-4.447-3.6-4.447s-3.6,2-3.6,4.447a7,7,0,0,1-.191,1.629A5.106,5.106,0,0,0,9.2,6.317v-5a.393.393,0,1,0-.785,0V2.858C7.245.742,5.111.177,2.722.658a.393.393,0,0,0-.286.534A9.205,9.205,0,0,0,4.008,3.636,4.25,4.25,0,0,0,8.418,5.142V6.317A5.242,5.242,0,0,0,.665,8.943a.393.393,0,0,0,.72.312A4.438,4.438,0,0,1,8.148,7.093a1.028,1.028,0,0,0,1.323,0c2.1-1.651,5.721-.932,6.963,2.679a7.247,7.247,0,0,1-.625,6.084c-.461.825-.84,1.511-1.153,2.082-2.431-.524-2.778-.715-3.606-.7a.392.392,0,1,0,.016.785,3.349,3.349,0,0,1,.475.025l-.235,2.115a.393.393,0,0,0,.78.087l.228-2.044,3.8.87-.112,1.008a.393.393,0,1,0,.78.087l.1-.919L22.774,20.6l-.3,2.722a.393.393,0,0,0,.78.087l.293-2.633.762.174a1.894,1.894,0,0,1-.418,3.74l-4.018.008.143-1.28a.393.393,0,0,0-.78-.087L19.081,24.7l-3.851.007.134-1.2a.393.393,0,0,0-.78-.087c-.033.3-.14,1.26-.144,1.292l-1.844,0,.233-2.095a.393.393,0,0,0-.78-.087L11.8,24.711h-.664a3.343,3.343,0,0,1-1.43-6.366.393.393,0,0,0-.337-.709,4.118,4.118,0,0,0-1.794,1.636,4.885,4.885,0,0,1-2.188-1.938,1.3,1.3,0,0,0-2.439.6L1.723,15.7a7.226,7.226,0,0,1-.785-5.026.393.393,0,1,0-.769-.159,8.013,8.013,0,0,0,.866,5.564l1.677,3.048L1.483,18.99A1.295,1.295,0,0,0,1.2,21.564l2.035.226c-.5.452-.911.861-.86,1.507a1.3,1.3,0,0,0,2.275.741,4.89,4.89,0,0,1,2.561-1.41,4.134,4.134,0,0,0,3.933,2.87l12.75-.025a2.679,2.679,0,0,0,.591-5.29ZM3.377,1.342c2.61-.356,4.257.888,4.806,3.05C6.057,4.965,4.384,3.283,3.377,1.342ZM23.168,19.882,15.456,18.12c.223-.408.47-.859.745-1.355a4.195,4.195,0,0,0,7.745-1.272.393.393,0,0,0-.77-.154,3.41,3.41,0,0,1-6.511.589,8.111,8.111,0,0,0,.954-3.855,3.414,3.414,0,0,1,5.545,1.867.393.393,0,1,0,.767-.166,4.194,4.194,0,0,0-6.375-2.631,7.726,7.726,0,0,0-1.022-3A7.762,7.762,0,0,0,16.921,5.7c0-1.811,1.128-3.661,2.81-3.661,1.664,0,2.81,1.825,2.81,3.661A6.936,6.936,0,0,0,24.4,10.593c2.045,2.056,1.847,5.873.071,8.122A4.886,4.886,0,0,1,23.168,19.882ZM7.04,21.855a5.7,5.7,0,0,0-2.991,1.673.51.51,0,1,1-.775-.662,5.43,5.43,0,0,1,1.187-1.027.393.393,0,0,0-.17-.72l-3.009-.336A.51.51,0,1,1,1.4,19.77H1.41l2.719.3c.125-.008.505.154.672-.187a.393.393,0,0,0-.073-.447A5.433,5.433,0,0,1,3.8,18.178a.511.511,0,0,1,.212-.689h0A.509.509,0,0,1,4.7,17.7a5.684,5.684,0,0,0,2.552,2.279A4.175,4.175,0,0,0,7.04,21.855Zm0,0" transform="translate(-0.001 -0.497)" fill="#786fff"/>
</svg>
