<svg xmlns="http://www.w3.org/2000/svg" viewBox="0 0 33 25"><defs/><path d="M.8 13.2C1 8.8 1.8 6.5 3.5 6c.3-.7.7-1.3 1.4-1.6.8-.4 1.8-.6 2.8-.5H8c.7 0 1.5.1 2.4.2 1.4.2 2.8.3 4.2.3h1.5c2.2-.1 4.3 0 6.5.2 0 0 0-.1.1-.1-.9-1.1-1.4-2.6-1.2-4 0-.3.3-.5.5-.4.1 0 .3.1.4.2.7 1 1.6 1.8 2.6 2.5.5-.1 1-.1 1.5-.1h.1c.5 0 1 0 1.5.1 1-.7 1.8-1.5 2.6-2.5.1-.2.5-.3.7-.1.1.1.2.2.2.4.1 1.4-.3 2.9-1.2 4 0 .1 0 .1.1.2.9-.1 1.9.1 2.7.5.2.2.3.5.1.7-.6.8-1.5 1.4-2.5 1.5v.3c-.5 3.9-1.6 4.9-3 5.2l-1.4 1.4-1.1 1.4c-.4 2.9-.5 5.8-.3 8.7 0 .3-.2.5-.4.5H22.9c-.2 0-.4-.2-.5-.4 0-.1-.6-2.7-.9-4.5-.1 2.6-.1 4.4-.1 4.4 0 .3-.2.5-.5.5h-2c-.2 0-.4-.2-.5-.4 0 0-.8-4.5-1-7.2 0-.1 0-.3.2-.4.1-.1.2-.3.3-.4H13.3c-.3 0-.6 0-.9-.1-.5.8-1.2 1.4-2 2l.6 5.9c0 .3-.2.5-.4.5h-2c-.4.1-.6-.1-.6-.3 0 0-.6-3.6-.9-6.3-.1.1-.3.2-.4.2l.5 5.9c0 .3-.2.5-.4.5h-2c-.2 0-.4-.2-.5-.4 0-.3-1.1-6.7-1-8.7 0-.5.1-1 .1-1.4.2-1.3.2-2.6-.1-3.8-.2-1-.2-2.1-.2-3.2-.8.8-1.2 2.8-1.4 5.8.4.2.8.7.8 1.9 0 .9-.4 1.7-.9 2.3-.2.2-.5.2-.7 0-.5-.6-.9-1.4-.9-2.3 0-1.2.4-1.7.8-1.9zm9.5-8.1C9.4 5 8.6 4.9 8 4.9h-.3c-.5 0-1 0-1.5.1 1.3 1 2.5 2.2 3.6 3.5.3.4.6.7.8.9.8.5 1.8.7 2.8.3.9-.3 1.5-1.2 1.5-2.1-.1-.8.1-1.6.3-2.3h-.7c-1.4 0-2.8-.1-4.2-.2zm11.9 1.3c0-.3 0-.5.1-.8-.5 0-.9 0-1.3.1.3.4.7.6 1.2.7zm.2-4.5c.1.6.4 1.1.8 1.6.2-.2.4-.3.6-.5-.6-.3-1-.7-1.4-1.1zM29 3.1c.2.1.4.3.6.5.4-.5.6-1.1.8-1.6-.5.4-1 .8-1.4 1.1zm1.4 2.5c0 .3.1.5.1.8.5-.1.9-.3 1.3-.6-.5-.2-1-.3-1.4-.2zm-1 2c.3-1.1.1-2.3-.6-3.3-.6-.6-1.5-.8-2.3-.7h-.3c-.5 0-1 0-1.4.1h-.1c-.4.1-.7.3-1 .6-.6 1-.9 2.2-.6 3.3.5 4.4 1.8 4.4 3.1 4.4H27c1.1-.2 2-.9 2.4-4.4zm-7.7 10.6c.1.1.2.2.2.3.2.9.9 4.3 1.1 5.5h.7c-.1-2.4-.1-4.8.2-7.3-.7.5-1.5 1-2.3 1.4l.1.1zm-7.6-2.5h2.7l.3-.2c1.4-.9 2.3-1.5 2.5-2.2.1-.2 0-.5-.1-.6-.6-.6-1.5-1-2.3-.9-1.1.1-1.6.1-2.7 2.9a3 3 0 00-.4 1zM8.9 24h1l-.5-5.7c0-.2.1-.4.3-.5.6-.3 1.1-.8 1.5-1.3-.8-.1-1.5-.3-2.2-.5-.2.6-.6 1.1-1 1.6.2 2.1.7 5.3.9 6.4zm-4.5-9.4c0 .4-.1.9-.1 1.4.1 2.7.4 5.4.9 8.1h1l-.5-5.7c0-.2.1-.4.3-.5 1.1-.4 1.9-1.3 2.2-2.4-.1-.3.1-.5.4-.6.1 0 .3 0 .4.1.3.2 1.1.6 4 .7.2-.4.4-.9.6-1.4 1.2-2.8 1.9-3.3 3.5-3.5 1.2-.1 2.4.4 3.2 1.3.4.4.5 1 .3 1.5-.4.9-1.1 1.6-1.9 2.1.1 0 .2.1.3.2.1.1.1.3 0 .5-.2.4-.5.8-.8 1.2.2 2.2.7 5.3.9 6.4h1.1c0-1 0-3.3.3-6.1v-.1s0-.1.1-.1l.1-.1h.1c1.3-.5 2.4-1.3 3.4-2.2.4-.6.8-1.1 1.2-1.6l.6-.6c-1.7-.1-3.2-.7-3.7-5.3v-.3c-1-.1-1.9-.7-2.5-1.5-.1-.2-.1-.4 0-.5h-3.4c-.4.7-.6 1.5-.6 2.3-.1 1.3-.9 2.5-2.2 2.9-.5.2-.9.2-1.4.2-.8 0-1.7-.2-2.3-.8-.3-.3-.6-.7-.9-1.1-1.2-1.4-2.5-2.6-3.9-3.7-1 .8-1.3 2.5-.8 5 .3 1.4.3 2.8.1 4.2zm-3.1 1.6c.2-.3.3-.7.3-1.1 0-.8-.2-1-.3-1s-.3.3-.3 1c0 .4.1.8.3 1.1z"/></svg>