<svg xmlns="http://www.w3.org/2000/svg" id="Layer_1" x="0" y="0" version="1.1" viewBox="0 0 25.3 29.1" xml:space="preserve"><defs/><g id="rooster" transform="translate(-48 -16)"><circle id="Ellipse_13" cx="67.5" cy="21.8" r=".4" class="st0"/><path id="Path_31" d="M72.8 24.7h-1.9v.7c0 .9-.3 1.8-.8 2.5-.4.5-.6 1.2-.6 1.9V33c0 2.9-2.4 5.3-5.3 5.3-.4.7-1.1 1.3-1.9 1.7v.6l.9 1.3 2.9 2.4c.2.2.2.5.1.7-.1.1-.2.2-.4.2h-7.3c-.3 0-.5-.2-.5-.5 0-.1 0-.2.1-.3l.8-1.2-1.3-1.7c-.1-.1-.1-.2-.1-.3V40c-4.6-1.1-7.8-5.2-7.8-9.9v-2.9c0-.5-.2-1-.6-1.4-.6-.6-.9-1.3-.9-2.1v-1.4c0-.3.2-.5.5-.5 1.4 0 2.7.4 3.8 1.3l3 2.2c1.9 1.5 4.7 1.1 6.2-.9.2-.3.4-.6.5-.9l.1-.3a6 6 0 013.8-3.5l-.6-.2c-1.3-.4-2.2-1.6-2.2-3 0-.3.2-.5.5-.5h4.9c1.3 0 2.4 1.1 2.4 2.4v3.9c1.1 0 2.1.7 2.4 1.8.1.3-.1.5-.3.6h-.4zM62.3 42.6c-.1 0-.1-.1 0 0L61.2 41c-.1-.1-.1-.2-.1-.3v-.5h-1v.4l1.3 2.2 1.7 1.3h.9l-1.7-1.5zm-4.1-1.5l1.4 1.8c.1.2.1.4 0 .6l-.5.7h2.5l-.8-.6c-.1 0-.1-.1-.1-.1L59.2 41c0-.1-.1-.2-.1-.2v-.5c-.3 0-.7 0-1-.1l.1.9zm4.7-17.5l-.1.3a5.4 5.4 0 01-7.1 2.8c-.4-.2-.8-.4-1.1-.6l-3-2.2c-.8-.6-1.7-1-2.7-1v.9c0 .5.2 1 .6 1.4.6.6.9 1.3.9 2.1v2.9c0 5.1 4.1 9.2 9.2 9.2h1c1.6 0 2.9-1.3 2.9-2.9v-.7c-.5.1-1 .2-1.5.2h-6c-1.2 0-2.1-1-2.2-2.1 0-.6.3-1.2.8-1.6l2.8-2.4.6.7-2.8 2.4c-.5.4-.6 1.2-.1 1.7.2.3.5.4.9.4h6.1c2.1 0 3.9-1.7 3.9-3.9v-1.9h1v1.9c0 1.7-.9 3.3-2.4 4.2v1.1c0 .3 0 .6-.1 1 2.3-.2 4-2.1 4-4.4v-3.2c0-.9.3-1.8.8-2.5.4-.5.6-1.2.6-1.9v-.7h-.5c-.3 0-.5-.2-.5-.5v-1.5c0-.3.2-.5.5-.5h.5c0-1.1-.9-1.9-1.9-1.9-2.2 0-4.2 1.3-5.1 3.2zm6-6.5v.9h-1v-1h-1v1h-1v-1H64c.2.8.7 1.4 1.5 1.6l.6.2c.3.1.6.4.7.7.3-.1.7-.1 1-.1.7 0 1.4.3 1.9.7v-1.7c.2-.6-.2-1.1-.8-1.3zm1.9 6.2h-.9v.5H72c-.4-.3-.8-.5-1.2-.5z" class="st0"/><path id="Path_32" d="M61.3 32.7h-.8v-.8h.8c.7 0 1.2-.5 1.2-1.2v-.8h.8v.8a2 2 0 01-2 2z" class="st0"/></g></svg>