<svg xmlns="http://www.w3.org/2000/svg" viewBox="0 0 28.59 19.06"><defs/><g transform="translate(-16 -95.96)"><path d="M44.26 102.66a3.02 3.02 0 01-1.78-1.6l-.64-1.39a6.34 6.34 0 00-.34-.64 3.33 3.33 0 001.15-1.08l.42-.62a.48.48 0 00-.21-.7l-.88-.37a3.49 3.49 0 00-3.2.19l-.13.08a6.37 6.37 0 00-2.62-.57H22.4a6.4 6.4 0 00-6.39 6.2v.19a6.4 6.4 0 001.54 4.16 1.7 1.7 0 01-.2 2.4l-1.17.98a.48.48 0 00-.14.51l1.42 4.3a.48.48 0 00.46.32h1.9a.48.48 0 00.48-.55l-.4-2.79h.48l.39-.01v.07a.47.47 0 00.05.16l1.43 2.85a.48.48 0 00.43.27h1.9a.48.48 0 00.48-.56l-.4-2.33a6.18 6.18 0 003.85-1.8l.1-.09a11.73 11.73 0 001.22-.01v1.45a.48.48 0 00.02.15l.95 2.86a.48.48 0 00.46.33h2.38a.48.48 0 00.47-.56l-.46-2.72.26-.58.23.67a.47.47 0 00.05.11l1.91 2.86a.48.48 0 00.4.22h2.38a.48.48 0 00.45-.65l-1.4-3.73v-2.22a5 5 0 003.96-1.46l.57-.57 1.78-.44a.48.48 0 00.36-.46v-2.38a.48.48 0 00-.33-.46zm-2.65-5.52l.35.14-.1.15a2.38 2.38 0 01-.93.82 6.42 6.42 0 00-1.3-1.17 2.6 2.6 0 011.98.06zM24.1 111.2a.48.48 0 00-.47.55l.38 2.3h-1.05l-1.26-2.52v-.03a5.42 5.42 0 003.06-2.1l.05.02a11.5 11.5 0 002.5.68 5.23 5.23 0 01-3.21 1.1zm8.58.55l.39 2.3h-1.48l-.82-2.46v-1.47a11.57 11.57 0 002.57-.67l.12.36-.74 1.67a.48.48 0 00-.04.27zm10.95-6.64l-1.54.38a.48.48 0 00-.22.13l-.67.66a4.05 4.05 0 01-3.67 1.11.48.48 0 00-.57.47v2.86a.48.48 0 00.03.17l1.2 3.17h-1.45l-1.73-2.6-.92-2.78-.48-1.89-.92.23.38 1.51a10.7 10.7 0 01-7.8.05 6.13 6.13 0 00.59-1.57l-.93-.2a5.18 5.18 0 01-.75 1.74l-.01.02a4.45 4.45 0 01-3.8 2.15h-1.04a.48.48 0 00-.47.54l.4 2.8h-1.01l-1.22-3.66.92-.76a2.65 2.65 0 00.31-3.76 5.44 5.44 0 01-1.17-2.35 1.43 1.43 0 001.77-1.38v-.48a.48.48 0 11.95 0v.95h.95v-.95a1.43 1.43 0 00-2.85 0v.48a.48.48 0 01-.96.04 5.44 5.44 0 015.44-5.28h13.65a5.45 5.45 0 014.94 3.15l.64 1.4a3.98 3.98 0 002.01 1.97z" data-name="Path 29"/><path d="M39.01 100.29a.45.45 0 00.17-.7l-.6-.78a3.84 3.84 0 00-3.05-1.5h-.82v.9h.82a2.94 2.94 0 012.33 1.15l.25.33-.2.09a2.91 2.91 0 01-3.28-.65l-.65.63a3.8 3.8 0 004.29.85z" data-name="Path 30"/><circle cx=".91" cy=".91" r=".91" data-name="Ellipse 12" transform="translate(38 101.7)"/></g></svg>