<svg xmlns="http://www.w3.org/2000/svg" viewBox="0 0 23.53 25"><defs/><g data-name="Group 35"><g data-name="Group 34"><path d="M17.98 13.14a7.79 7.79 0 00-3.6-.16 6.43 6.43 0 00-4.33 2.8.48.48 0 00.36.75c.01 0 1.27.12 2.7.41l-.3.98a.48.48 0 10.91.28l.33-1.05.6.16h.02l-.33 1.01a.48.48 0 10.92.3l.33-1.02.34.11a8.6 8.6 0 001.6.43h.03a.48.48 0 00.03-.96 9.32 9.32 0 01-1.37-.38l-.8-.26-.5-.15a29.64 29.64 0 00-3.56-.71c2.1-2.37 5.47-1.91 6.32-1.63.68.23 1.8.77 1.72 1.9a.48.48 0 10.96.07c.09-1.3-.78-2.35-2.38-2.88z" data-name="Path 33"/></g></g><g data-name="Group 37"><g data-name="Group 36"><path d="M22.1 6.63c-.02-.19-.23-.9-.37-1.39a1.59 1.59 0 011.04.28.5.5 0 00.76-.5c-.03-.2-.61-4.84-3.7-5a3.23 3.23 0 00-2.79.95c-.82.96-.98 2.55-.5 4.88.22 1.04.65 3.73.86 5.04a11.18 11.18 0 00-2.03-.19 10.18 10.18 0 00-5 1.23 19.64 19.64 0 00-1.84-3.91 3.2 3.2 0 00-5.62 2.87 3.2 3.2 0 00-1.7 5.54 3.2 3.2 0 002.67 5.62 2.35 2.35 0 001.57 1.08 4.93 4.93 0 005.36-2.18 10.1 10.1 0 003.29.94v2.09H13A.5.5 0 1013 25h5.32a.5.5 0 100-1.02H17.3V21.8a9.27 9.27 0 003.56-1.37 5.07 5.07 0 002.47-3.86l.01-.04c.28-3.05-1.22-7.12-1.74-8.4a1.66 1.66 0 00.51-1.5zM4.02 20.96l-.16.05a2.18 2.18 0 01-1.5-4.08.5.5 0 00.03-.92 2.18 2.18 0 011.27-4.11.5.5 0 00.49-.8 2.19 2.19 0 01.53-3 2.18 2.18 0 013.04.52 19.2 19.2 0 011.8 3.9 4.83 4.83 0 00-2.1 3.82 4.32 4.32 0 00.69 2.3A20.77 20.77 0 014 20.96zm4.24.95a3.93 3.93 0 01-2.56.24 1.68 1.68 0 01-.83-.45 22.93 22.93 0 003.86-2.26 6.63 6.63 0 001.2 1.02 3.93 3.93 0 01-1.67 1.45zm8.02 2.07h-1.16v-2.02h.26q.45 0 .9-.04v2.06zm6.04-7.52a4.07 4.07 0 01-2.02 3.12 8.4 8.4 0 01-3.56 1.28 10.35 10.35 0 01-1.36.09 9.24 9.24 0 01-4.5-1.11 5.61 5.61 0 01-1.68-1.4 3.38 3.38 0 01-.77-2.1 3.98 3.98 0 011.97-3.2 8.87 8.87 0 014.98-1.4 9.97 9.97 0 012.52.3c2.65.7 4.42 2.43 4.42 4.3v.12zm-.22-3.16l-.26-.26a8.06 8.06 0 00-3.36-1.9c-.17-1.04-.69-4.3-.94-5.5-.4-1.97-.3-3.32.28-4a2.26 2.26 0 011.96-.62c1.57.09 2.3 2.06 2.58 3.25a1.74 1.74 0 00-1.55.32v.01l-.04.03-.01.01-.02.03-.02.02-.01.01-.02.03v.02l-.02.02v.02l-.02.03v.04l-.01.03V5.13c.21.7.45 1.51.47 1.65a.59.59 0 01-.31.66.35.35 0 01-.07.01c-.26.04-.52-.2-.57-.53-.02-.14-.03-1.02-.04-1.76a.5.5 0 00-.5-.5.5.5 0 00-.5.5c0 .38 0 1.65.04 1.91a1.6 1.6 0 001.5 1.4 28.65 28.65 0 011.44 4.83z" data-name="Path 34"/></g></g><g data-name="Group 39"><g data-name="Group 38"><path d="M19.88 2.34a.48.48 0 000 .96.48.48 0 000-.96z" data-name="Path 35"/></g></g><g data-name="Group 41"><g data-name="Group 40"><path d="M6.21 9.35a.48.48 0 000 .96.48.48 0 000-.96z" data-name="Path 36"/></g></g><g data-name="Group 43"><g data-name="Group 42"><path d="M2.87 13.52a.48.48 0 000 .96.48.48 0 000-.96z" data-name="Path 37"/></g></g><g data-name="Group 45"><g data-name="Group 44"><path d="M2.46 18.72a.48.48 0 000 .96.48.48 0 000-.96z" data-name="Path 38"/></g></g><g data-name="Group 47"><g data-name="Group 46"><path d="M18.91 16.85a.48.48 0 000 .96.48.48 0 000-.96z" data-name="Path 39"/></g></g></svg>