<svg xmlns="http://www.w3.org/2000/svg" viewBox="0 0 32.98 25.01"><g data-name="Layer 2"><path fill="#6c6cb2" d="M32.19 13.21c-.22-4.43-1-6.67-2.65-7.16a3.18 3.18 0 00-1.37-1.63 5.51 5.51 0 00-2.8-.5H25c-.67 0-1.48.08-2.41.17a41.7 41.7 0 01-4.18.27H17a43.7 43.7 0 00-6.47.24s0-.09-.05-.13a5.48 5.48 0 001.23-4 .49.49 0 00-.59-.47.51.51 0 00-.35.22A10.92 10.92 0 018.22 2.7a6.29 6.29 0 00-1.5-.12h-.09a6.29 6.29 0 00-1.5.12A11.08 11.08 0 012.58.23.49.49 0 001.9.09a.5.5 0 00-.21.35 5.42 5.42 0 001.24 4 1.34 1.34 0 00-.07.18 4.18 4.18 0 00-2.66.54.49.49 0 00-.11.68 3.41 3.41 0 002.47 1.51v.34c.46 3.9 1.63 5 3 5.21q.78.75 1.35 1.38A14.91 14.91 0 018 15.72a39.31 39.31 0 01.32 8.74.49.49 0 00.43.54h1.65a.5.5 0 00.48-.39l.9-4.51c.13 2.6.12 4.38.12 4.4a.48.48 0 00.48.49h2a.48.48 0 00.48-.4c0-.05.77-4.48 1-7.15a.54.54 0 00-.15-.4 2.5 2.5 0 01-.34-.39h4.41c.32 0 .62 0 .91-.06a7.21 7.21 0 002 2l-.55 5.94a.5.5 0 00.44.53h2a.48.48 0 00.42-.46s.61-3.6.88-6.27a3.84 3.84 0 00.39.22l-.55 5.93a.5.5 0 00.44.53h2a.48.48 0 00.48-.41c.05-.27 1.14-6.71 1-8.68 0-.52-.08-1-.13-1.43a10.12 10.12 0 01.08-3.84 11.44 11.44 0 00.22-3.25c.75.84 1.21 2.79 1.36 5.84-.37.2-.76.69-.76 1.89a4 4 0 00.9 2.32.5.5 0 00.69.05v-.05a3.83 3.83 0 00.9-2.32c0-1.26-.42-1.74-.8-1.92zm-9.46-8.15c.9-.09 1.69-.17 2.31-.17h.3a6.84 6.84 0 011.5.09 24 24 0 00-3.55 3.51c-.32.37-.6.7-.77.85a3 3 0 01-2.75.31 2.33 2.33 0 01-1.54-2.12 8.69 8.69 0 00-.45-2.2h.68a38.09 38.09 0 004.27-.27zm-11.92 1.3a5.16 5.16 0 00-.07-.79 3.78 3.78 0 011.34.14 2.2 2.2 0 01-1.26.65zm-.2-4.43a4.89 4.89 0 01-.75 1.64 3.45 3.45 0 00-.56-.45 13.39 13.39 0 001.31-1.19zM4 3.12a2.69 2.69 0 00-.55.46 4.81 4.81 0 01-.76-1.64A13.29 13.29 0 004 3.12zM2.6 5.57a5.27 5.27 0 00-.07.79 2.27 2.27 0 01-1.27-.64 3.79 3.79 0 011.34-.15zm1 2a4.2 4.2 0 01.59-3.29 3 3 0 012.32-.74h.25a5.22 5.22 0 011.42.13h.07a2 2 0 011 .6 4.13 4.13 0 01.59 3.28C9.26 12 7.94 12 6.67 12h-.79c-1-.15-1.9-.88-2.32-4.4zm7.72 10.67a.55.55 0 00-.18.29c-.16.87-.85 4.32-1.08 5.49h-.7a40.86 40.86 0 00-.23-7.25 12.67 12.67 0 002.26 1.36l-.11.11zm7.65-2.56h-2.79l-.31-.2c-1.37-.88-2.28-1.45-2.54-2.21a.62.62 0 01.15-.62 3 3 0 012.32-.92c1.1.09 1.6.13 2.72 2.88.15.37.3.72.46 1zM24.13 24h-1l.53-5.74a.49.49 0 00-.3-.5 4.33 4.33 0 01-1.5-1.32A9.46 9.46 0 0024 16a4.69 4.69 0 001 1.58c-.18 2.16-.68 5.33-.87 6.44zm4.45-9.43c.05.44.1.89.13 1.38a58.87 58.87 0 01-.92 8.05h-1l.54-5.74a.5.5 0 00-.31-.5 3.56 3.56 0 01-2.17-2.41.49.49 0 00-.85-.45c-.26.21-1.14.58-4 .74-.2-.42-.4-.87-.61-1.37-1.15-2.83-1.89-3.35-3.54-3.49a4 4 0 00-3.17 1.3 1.58 1.58 0 00-.3 1.53 4.41 4.41 0 001.93 2.07.5.5 0 00-.31.22.48.48 0 000 .48 5.88 5.88 0 00.81 1.22c-.18 2.16-.68 5.32-.86 6.44h-1.07c0-1 0-3.29-.25-6.13a.36.36 0 000-.1.31.31 0 000-.1l-.06-.06-.09-.05a11.11 11.11 0 01-3.58-2.3 17.87 17.87 0 00-1.22-1.64c-.19-.21-.39-.43-.61-.65 1.67-.08 3.16-.75 3.69-5.29v-.34a3.41 3.41 0 002.48-1.51.49.49 0 000-.52h3.38a5.4 5.4 0 01.59 2.33 3.32 3.32 0 002.17 2.93 4.32 4.32 0 001.42.24 3.62 3.62 0 002.35-.76c.2-.19.47-.51.83-.92a20 20 0 013.88-3.7c1 .76 1.26 2.45.76 5a11.3 11.3 0 00-.04 4.13zm3.15 1.64a2.39 2.39 0 01-.3-1.11c0-.76.18-1.05.3-1.05s.3.29.3 1.05a2.66 2.66 0 01-.3 1.14z" data-name="Layer 1"/></g></svg>