<svg xmlns="http://www.w3.org/2000/svg" viewBox="0 0 21.66 25"><defs/><g id="Layer_2" data-name="Layer 2"><g id="Layer_1-2" data-name="Layer 1"><g id="rooster"><circle id="Ellipse_13" cx="4.96" cy="4.96" r=".35" class="cls-1" data-name="Ellipse 13"/><path id="Path_31" d="M.42 7.5h1.66v.62a3.54 3.54 0 00.71 2.13 2.73 2.73 0 01.54 1.63v2.7a4.61 4.61 0 004.59 4.59H8a3.37 3.37 0 001.63 1.42v.53l-.73 1.1-2.45 2a.41.41 0 00-.05.59.39.39 0 00.32.15h6.25a.41.41 0 00.41-.42.39.39 0 00-.07-.23l-.67-1 1.08-1.43a.44.44 0 00.08-.25v-1.05a8.77 8.77 0 006.67-8.5V9.63a1.72 1.72 0 01.5-1.21 2.48 2.48 0 00.74-1.8v-1.2a.41.41 0 00-.46-.42A5.44 5.44 0 0018 6.08L15.45 8a3.77 3.77 0 01-5.74-1.54l-.1-.23a5.48 5.48 0 00-3.29-3L6.88 3A2.74 2.74 0 008.75.42.42.42 0 008.33 0H4.17a2.09 2.09 0 00-2.09 2.08v3.34A2.25 2.25 0 000 7a.42.42 0 00.27.53H.4zm9 15.32l.08-.09.84-1.25a.48.48 0 00.07-.23v-.44h.83v.3l-1.14 1.94-1.49 1.12h-.79zm3.49-1.29l-1.17 1.55a.41.41 0 000 .48l.4.6H10l.67-.5a.29.29 0 00.1-.12L12 21.46a.39.39 0 00.06-.21v-.43a8 8 0 00.84-.08zm-4.07-15l.1.23a4.63 4.63 0 007 1.87l2.56-1.88a4.62 4.62 0 012.33-.9v.76a1.64 1.64 0 01-.5 1.22 2.51 2.51 0 00-.74 1.8v2.45A7.93 7.93 0 0111.67 20h-.84a2.5 2.5 0 01-2.5-2.5v-.61a4.12 4.12 0 001.25.19h5.24A1.84 1.84 0 0016 13.84l-2.4-2.07-.54.63 2.42 2.07a1 1 0 01.11 1.43 1 1 0 01-.77.35H9.58a3.33 3.33 0 01-3.33-3.33v-1.67h-.84v1.67a4.15 4.15 0 002.09 3.6v1a3.23 3.23 0 00.1.82 3.75 3.75 0 01-3.43-3.74v-2.7a3.61 3.61 0 00-.71-2.13 2.73 2.73 0 01-.54-1.63V7.5h.41a.42.42 0 00.42-.42V5.83a.41.41 0 00-.42-.41h-.41a1.66 1.66 0 011.66-1.67 4.63 4.63 0 014.27 2.81zM3.75.91v.76h.83V.83h.83v.84h.84V.83h1.62a1.91 1.91 0 01-1.25 1.39l-.52.17a1 1 0 00-.62.6 5.46 5.46 0 00-.9-.07 2.48 2.48 0 00-1.66.64V2.08A1.23 1.23 0 013.75.91zm-1.6 5.34h.76v.42H1.15a1.38 1.38 0 011-.42z" class="cls-1" data-name="Path 31"/><path id="Path_32" d="M10.29 14.36H11v-.7h-.7a1 1 0 01-1-1v-.7h-.7v.7a1.74 1.74 0 001.69 1.7z" class="cls-1" data-name="Path 32"/></g></g></g></svg>