<svg xmlns="http://www.w3.org/2000/svg" viewBox="0 0 39.5 25"><defs/><g id="Layer_2" data-name="Layer 2"><g id="Layer_1-2" data-name="Layer 1"><g id="fish"><g id="Group_27" data-name="Group 27"><g id="Group_26" data-name="Group 26"><path id="Path_21" d="M36.82 8.92a19.87 19.87 0 00-6.53-3.74 23.34 23.34 0 00-3.5-.9 13.06 13.06 0 00-7-4.22 2.22 2.22 0 00-2.69 1.68 2.07 2.07 0 00-.06.5v3.18a27.68 27.68 0 00-8.34 6 7.5 7.5 0 00-1.94-3.89C4.54 5.31 1 5.4.81 5.41a.83.83 0 00-.81.8c0 .15-.1 3.72 2.13 6A6.49 6.49 0 004 13.41a6.52 6.52 0 00-1.82 1.26C-.1 16.9 0 20.48 0 20.63a.84.84 0 00.81.8h.13a8.76 8.76 0 005.82-2.12 7.63 7.63 0 001.94-4 30.19 30.19 0 005.51 4.5v2.91A2.25 2.25 0 0016.44 25a2.38 2.38 0 00.65-.1 12.76 12.76 0 004.25-2.28 13.63 13.63 0 002 .15 20.78 20.78 0 006.77-1.14c5.17-1.76 9.37-5.46 9.37-8.25.02-1.33-.93-2.91-2.66-4.46zM3.31 11a6.47 6.47 0 01-1.6-3.87 6.47 6.47 0 013.87 1.6 6.35 6.35 0 011.59 3.81A6.28 6.28 0 013.31 11zm2.27 7.15a6.52 6.52 0 01-3.87 1.59 6.59 6.59 0 011.6-3.87 6.52 6.52 0 013.87-1.59 6.53 6.53 0 01-1.6 3.87zM18.7 2.24a.55.55 0 01.22-.45.54.54 0 01.47-.11A11.54 11.54 0 0124.12 4h-.76a15.08 15.08 0 00-4.66.78zm-2.09 21.07a.59.59 0 01-.51-.09.59.59 0 01-.23-.46v-2a20.82 20.82 0 003.29 1.34 10.72 10.72 0 01-2.55 1.21zm6.75-2.2a13.93 13.93 0 01-2.13-.19 17.15 17.15 0 01-5.76-2.26 28.58 28.58 0 01-6.32-5.28 26.57 26.57 0 019-6.64 13.75 13.75 0 015.17-1.08 18 18 0 012.84.22 20 20 0 012.15.45 10.92 10.92 0 00-2.86 7.24 10.67 10.67 0 002.76 6.89 19.26 19.26 0 01-4.85.65zM30 19.9a8.89 8.89 0 01-2.88-6.33 9.08 9.08 0 013-6.66c4.77 1.78 7.68 4.93 7.68 6.47s-3 4.74-7.8 6.52z" class="cls-1" data-name="Path 21"/></g></g><g id="Group_29" data-name="Group 29"><g id="Group_28" data-name="Group 28"><path id="Path_22" d="M32.89 12.32a.86.86 0 00-.86.86v.39a.86.86 0 001.72 0v-.39a.86.86 0 00-.86-.86z" class="cls-1" data-name="Path 22"/></g></g><g id="Group_31" data-name="Group 31"><g id="Group_30" data-name="Group 30"><path id="Path_23" d="M24.5 7.77a.86.86 0 00-1.22 0 2.1 2.1 0 00-.24.27.86.86 0 001.31 1.11l.18-.2a.85.85 0 00-.03-1.18z" class="cls-1" data-name="Path 23"/></g></g><g id="Group_33" data-name="Group 33"><g id="Group_32" data-name="Group 32"><path id="Path_24" d="M24.43 18.05a7 7 0 01-1.51-4.59 8.11 8.11 0 01.51-2.89.86.86 0 10-1.61-.57 10 10 0 00-.63 3.51 8.8 8.8 0 001.93 5.72.86.86 0 101.34-1.09z" class="cls-1" data-name="Path 24"/></g></g></g></g></g></svg>