<svg xmlns="http://www.w3.org/2000/svg" viewBox="0 0 37.5 25.01"><defs/><g id="Layer_2" data-name="Layer 2"><g id="Layer_1-2" data-name="Layer 1"><g id="Outline"><path id="Path_29" d="M37.07 8.79a3.94 3.94 0 01-2.33-2.09l-.85-1.82a6.9 6.9 0 00-.45-.88A4.2 4.2 0 0035 2.62l.55-.81a.63.63 0 00-.18-.87l-.1-.06L34.08.4a4.53 4.53 0 00-4.19.24l-.18.1A8.26 8.26 0 0026.29 0H8.38A8.39 8.39 0 000 8.13v.26a8.39 8.39 0 002 5.45A2.23 2.23 0 011.78 17L.23 18.28A.61.61 0 000 19l1.88 5.63a.62.62 0 00.62.37H5a.63.63 0 00.63-.62v-.09l-.53-3.66H6.24v.1a.36.36 0 00.06.2l1.87 3.75a.63.63 0 00.56.35h2.5a.63.63 0 00.62-.63v-.1l-.51-3.06a8.07 8.07 0 005-2.36l.12-.12h1.6v1.9a.48.48 0 000 .2l1.25 3.75A.62.62 0 0020 25h3.12a.63.63 0 00.63-.62v-.1l-.59-3.57.34-.76.29.88a1 1 0 00.07.15l2.5 3.75a.63.63 0 00.52.27H30a.62.62 0 00.62-.62.78.78 0 000-.22l-1.84-4.89v-2.92a6.61 6.61 0 005.2-1.9l.74-.75 2.28-.59a.63.63 0 00.47-.6V9.38a.62.62 0 00-.43-.59zm-3.48-7.24l.46.19-.13.19A3.15 3.15 0 0132.71 3 8.56 8.56 0 0031 1.47a3.39 3.39 0 012.59.08zM10.62 20a.63.63 0 00-.62.63.34.34 0 000 .1l.5 3H9.14l-1.66-3.3a7.18 7.18 0 004-2.76h.06a14.37 14.37 0 003.28.9A6.83 6.83 0 0110.63 20zm11.26.73l.5 3h-1.93l-1.08-3.22V18.6a14.93 14.93 0 003.37-.88l.16.47-1 2.19a.6.6 0 00-.02.35zM36.25 12l-2 .5a.66.66 0 00-.29.17l-.87.87A5.33 5.33 0 0128.25 15a.63.63 0 00-.74.49.49.49 0 000 .12v3.75a.57.57 0 000 .22l1.56 4.15h-1.86l-2.27-3.4-1.22-3.64-.62-2.48-1.21.3.5 2a14.11 14.11 0 01-10.23.06 8.07 8.07 0 00.77-2.05l-1.22-.28a6.76 6.76 0 01-1 2.29 5.85 5.85 0 01-5 2.82H4.37a.62.62 0 00-.62.62.28.28 0 000 .09l.52 3.66H3L1.35 19l1.2-1A3.47 3.47 0 003 13.06 7.35 7.35 0 011.42 10a1.87 1.87 0 002.27-1.42 1.74 1.74 0 00.06-.45v-.62a.63.63 0 111.25 0v1.25h1.25V7.51a1.88 1.88 0 10-3.75 0v.62a.63.63 0 01-.63.62.62.62 0 01-.62-.56 7.13 7.13 0 017.13-6.93h17.9a7.14 7.14 0 016.47 4.14l.84 1.82a5.23 5.23 0 002.65 2.59z" class="cls-1" data-name="Path 29"/><path id="Path_30" d="M30.18 5.69a.59.59 0 00.31-.78.57.57 0 00-.08-.13l-.8-1a5 5 0 00-4-2h-1.06V3h1.07a3.88 3.88 0 013.05 1.5l.33.4-.27.1a3.82 3.82 0 01-4.3-.85l-.84.85a5 5 0 005.62 1.11z" class="cls-1" data-name="Path 30"/><circle id="Ellipse_12" cx="30.04" cy="8.74" r="1.19" class="cls-1" data-name="Ellipse 12"/></g></g></g></svg>