<svg xmlns="http://www.w3.org/2000/svg" viewBox="0 0 29.1 25"><defs/><g id="Layer_2" data-name="Layer 2"><g id="Layer_1-2" data-name="Layer 1"><g id="meat"><path id="Path_25" d="M0 12c0 4 3.9 7.9 8.7 7.9a9.8 9.8 0 016.8 2.9 7.4 7.4 0 005.2 2.2 7.6 7.6 0 006-3.2 12.4 12.4 0 002.5-7.6v-3.4C29.2 5.5 26 0 20.9 0H17a.6.6 0 00-.5.6.6.6 0 00.5.5H21c3.9 0 7 4.4 7 9.7a11.3 11.3 0 01-2.1 6.9 6.4 6.4 0 01-5.1 2.8 6.3 6.3 0 01-4.3-1.9 11 11 0 00-7.6-3.3c-3.9 0-7.3-2.8-7.6-6.4a7.1 7.1 0 016.4-7.7 5.5 5.5 0 01.7 0H12A.6.6 0 1012 0H8.3a8.3 8.3 0 00-6.1 2.7A8.4 8.4 0 000 9zm8.7 4.5a9.8 9.8 0 016.8 2.9 7.4 7.4 0 005.2 2.2 7.5 7.5 0 006-3.2 11.4 11.4 0 001-1.7 10.8 10.8 0 01-2 4.4 6.4 6.4 0 01-5 2.7 6.3 6.3 0 01-4.3-1.8 11 11 0 00-7.6-3.3c-3.9 0-7.3-2.8-7.6-6.4a9 9 0 007.6 4.2z" class="cls-1" data-name="Path 25"/><path id="Path_26" d="M17.6 13.4a3 3 0 103-3 3 3 0 00-3 3zm3-2a1.9 1.9 0 11-1.9 2 2 2 0 012-2z" class="cls-1" data-name="Path 26"/><path id="Path_27" d="M5.7 10a.5.5 0 00.8.7L13 4.2a.5.5 0 00-.8-.8z" class="cls-1" data-name="Path 27"/><path id="Path_28" d="M19.2 3.4L12.7 10a.5.5 0 00.7.8L20 4.2a.5.5 0 00-.8-.8z" class="cls-1" data-name="Path 28"/><ellipse id="Ellipse_11" cx="14.6" cy=".5" class="cls-1" data-name="Ellipse 11" rx="1" ry=".5"/></g></g></g></svg>