<svg xmlns="http://www.w3.org/2000/svg" viewBox="0 0 167.7 136.1"><defs/><g id="Layer_2" data-name="Layer 2"><g id="Layer_1-2" data-name="Layer 1"><g id="spjfPq.tif"><path d="M20.8 78.3L31.5 67l11.3 12.8 9.5 11c1.8 2 2.8 2 4.2-.3 9.1-14.8 21.1-27 34.8-37.5 9-6.8 18.5-13 29-17 4.3-1.6 8.6-3 12.9-4.4l4.3-1.7v-.7c-.7-.3-1.3-.9-2-.9a46.7 46.7 0 00-6.7.6 69.6 69.6 0 00-9.4 2.2c-6.6 2.2-13.5 4-19.7 7.2-6.6 3.3-12.7 8-19 12.1a30.8 30.8 0 00-3 2.7c1-7 2-13.3 4.6-19.4 4-9.2 10.9-15.2 19.9-19a44.3 44.3 0 0111.4-3.1c9.2-1.2 18.4-1.8 27.6-3 6.6-.8 13.3-1.3 19.4-4.1 2.4-1.2 4.5-2.9 7-4.5l-.3 2.3c-1 5.4-1.5 11.3-3 16.6a117 117 0 01-6 16.2c-5.6 12.1-14 21.6-26.3 27.4a57.6 57.6 0 01-34.9 4.3 32.3 32.3 0 00-5.7-.5 5 5 0 00-3 1.1 117.6 117.6 0 00-19.8 24.4A96.3 96.3 0 0059 113c-.6 2-1.3 1-2.2.1L40 96.7 20.8 78.3z" class="cls-1"/><path d="M70.3 41c-5.5-1-10.5-2.3-15.5-2.5a37.9 37.9 0 00-12.4 1.9A56.5 56.5 0 0029.6 46c-7 4.4-12 10.7-15.5 18.3a41 41 0 00-4 17.8 43 43 0 0018 35.2 41.2 41.2 0 0031.4 8.2 43 43 0 0029.2-17A42.4 42.4 0 0097.6 79c-.2-1.9.4-2.5 2.3-2.2a40.5 40.5 0 005.7.1c1.6 0 2.2.5 2.3 2.2.4 18.2-6 33.5-20.2 45.3a52.5 52.5 0 01-16.6 9 51.6 51.6 0 01-26.2 2A52.3 52.3 0 017 108.7a51.8 51.8 0 01-6.5-33A52.6 52.6 0 0121.8 39a54.4 54.4 0 0117.7-8.5c8.6-2.5 17.2-2 25.9-1A22.1 22.1 0 0171 31c.7.3 1.6 1.4 1.5 2-.6 2.8-1.6 5.6-2.2 7.9z" class="cls-1"/></g></g></g></svg>