<svg xmlns="http://www.w3.org/2000/svg" viewBox="0 0 26.65 25"><g data-name="Layer 2"><path fill="#6c6cb2" d="M24.48 19.68l-.29-.06C27 17.32 27.6 12.2 25 9.54a6.2 6.2 0 01-1.67-4.34c0-2.45-1.62-4.44-3.6-4.44s-3.6 2-3.6 4.44a6.86 6.86 0 01-.2 1.63 5.1 5.1 0 00-6.73-1v-5a.4.4 0 00-.79 0v1.53C7.24.24 5.11-.32 2.72.16a.4.4 0 00-.31.46.64.64 0 000 .07A9.43 9.43 0 004 3.14a4.26 4.26 0 004.41 1.5v1.18a5.24 5.24 0 00-7.23 1.59 5.32 5.32 0 00-.52 1A.39.39 0 00.9 9a.38.38 0 00.48-.19A4.43 4.43 0 018.15 6.6a1 1 0 001.32 0c2.1-1.66 5.72-.94 7 2.67a7.28 7.28 0 01-.62 6.09l-1.16 2.08a18.48 18.48 0 00-3.6-.7.39.39 0 00-.39.4.41.41 0 00.4.39 2.57 2.57 0 01.48 0l-.24 2.12a.4.4 0 00.37.41.39.39 0 00.41-.33l.23-2 3.8.87-.11 1a.39.39 0 00.32.45.41.41 0 00.46-.32l.1-.92 5.89 1.35-.3 2.72a.4.4 0 00.37.42.39.39 0 00.41-.33l.3-2.63.76.17a1.89 1.89 0 01-.42 3.74h-4l.07-1.33a.38.38 0 00-.37-.41.39.39 0 00-.41.32l-.15 1.37h-3.84l.13-1.2a.39.39 0 00-.78-.09c0 .3-.14 1.26-.14 1.29h-1.85l.24-2.09a.41.41 0 00-.37-.42.39.39 0 00-.41.33l-.25 2.18h-.67a3.34 3.34 0 01-1.43-6.35.39.39 0 00-.33-.71 4.12 4.12 0 00-1.8 1.63 4.81 4.81 0 01-2.18-1.93 1.3 1.3 0 00-2.44.6L1.72 15.2a7.2 7.2 0 01-.78-5 .4.4 0 00-.77-.2A8 8 0 001 15.58l1.68 3-1.23-.14a1.3 1.3 0 00-.28 2.58l2 .22c-.5.45-.91.86-.86 1.51a1.3 1.3 0 002.28.74 4.89 4.89 0 012.56-1.41A4.13 4.13 0 0011.14 25h12.75a2.68 2.68 0 00.59-5.29zM3.38.84c2.62-.35 4.25.89 4.8 3.05-2.12.58-3.8-1.1-4.8-3.05zm19.79 18.54l-7.72-1.76.75-1.35A4.19 4.19 0 0023.94 15a.38.38 0 00-.32-.45.39.39 0 00-.45.29 3.41 3.41 0 01-6.51.59 8.11 8.11 0 001-3.85 3.41 3.41 0 015.54 1.86.4.4 0 00.45.33.39.39 0 00.33-.45 4.19 4.19 0 00-6.38-2.63 7.59 7.59 0 00-1-3 7.85 7.85 0 00.39-2.45c0-1.81 1.13-3.66 2.81-3.66s2.81 1.83 2.81 3.66a7 7 0 001.86 4.9c2 2.05 1.85 5.87.07 8.12a4.8 4.8 0 01-1.37 1.12zM7 21.36a5.62 5.62 0 00-3 1.67.51.51 0 01-.72.08.5.5 0 01-.08-.71 5.55 5.55 0 011.19-1 .39.39 0 00.11-.54.36.36 0 00-.28-.18l-3-.33a.52.52 0 01-.46-.56.51.51 0 01.56-.46l2.72.3c.12 0 .5.16.67-.18a.41.41 0 00-.07-.45 5.48 5.48 0 01-.93-1.26A.51.51 0 014 17a.51.51 0 01.69.21 5.64 5.64 0 002.55 2.28A4.13 4.13 0 007 21.36z" data-name="Layer 1"/></g></svg>