<svg xmlns="http://www.w3.org/2000/svg" viewBox="0 0 29.09 25"><defs/><g transform="translate(0 -35.88)"><path d="M0 47.9c0 3.96 3.88 7.87 8.74 7.87a9.82 9.82 0 016.8 2.93 7.4 7.4 0 005.14 2.18 7.57 7.57 0 005.96-3.22 12.41 12.41 0 002.45-7.58v-3.4c0-5.27-3.17-10.8-8.24-10.8H17.1a.57.57 0 100 1.14h3.75c3.92 0 7.1 4.33 7.1 9.66a11.27 11.27 0 01-2.21 6.88 6.46 6.46 0 01-5.06 2.77 6.34 6.34 0 01-4.34-1.84 10.96 10.96 0 00-7.6-3.27c-3.84 0-7.24-2.87-7.57-6.4a7.1 7.1 0 017.07-7.8h3.75a.57.57 0 100-1.13H8.24a8.26 8.26 0 00-6.1 2.7A8.4 8.4 0 000 44.87zm8.74 4.46a9.82 9.82 0 016.8 2.93 7.4 7.4 0 005.14 2.18 7.57 7.57 0 005.96-3.21 10.96 10.96 0 001.06-1.68 10.67 10.67 0 01-1.96 4.39 6.46 6.46 0 01-5.06 2.77 6.34 6.34 0 01-4.34-1.84 10.96 10.96 0 00-7.6-3.27c-3.83 0-7.23-2.86-7.57-6.39a9 9 0 007.57 4.12z" data-name="Path 25"/><path d="M17.6 49.25a2.99 2.99 0 102.98-3 3 3 0 00-2.99 3zm2.98-1.9a1.9 1.9 0 11-1.9 1.9 1.9 1.9 0 011.9-1.9z" data-name="Path 26"/><path d="M5.7 45.83a.54.54 0 00.77.77L13 40.06a.54.54 0 00-.76-.77z" data-name="Path 27"/><path d="M19.16 39.3l-6.53 6.53a.54.54 0 10.77.76l6.52-6.52a.54.54 0 00-.77-.77z" data-name="Path 28"/><ellipse cx="1" cy=".5" data-name="Ellipse 11" rx="1" ry=".5" transform="translate(13.54 35.9)"/></g></svg>