<svg xmlns="http://www.w3.org/2000/svg" viewBox="0 0 26.65 25"><defs/><path d="M24.48 19.68l-.29-.06c2.81-2.3 3.41-7.42.76-10.08a6.23 6.23 0 01-1.62-4.34c0-2.45-1.62-4.44-3.6-4.44s-3.6 2-3.6 4.44a7 7 0 01-.2 1.63A5.1 5.1 0 009.2 5.82v-5a.4.4 0 10-.79 0v1.54C7.24.25 5.11-.32 2.72.16a.4.4 0 00-.29.54 9.2 9.2 0 001.58 2.44 4.25 4.25 0 004.4 1.5v1.18A5.24 5.24 0 00.67 8.45a.4.4 0 00.72.3A4.44 4.44 0 018.15 6.6a1.03 1.03 0 001.32 0c2.1-1.65 5.72-.94 6.96 2.68a7.25 7.25 0 01-.62 6.08l-1.16 2.08c-2.43-.52-2.77-.71-3.6-.7a.4.4 0 10.01.79 3.35 3.35 0 01.48.02l-.23 2.12a.4.4 0 00.77.08l.23-2.04 3.8.87-.1 1a.4.4 0 10.77.1l.1-.93 5.9 1.35-.3 2.73a.4.4 0 00.77.08l.3-2.63.76.17a1.9 1.9 0 01-.42 3.74l-4.02.01.14-1.28a.4.4 0 00-.78-.09l-.15 1.37-3.85.01.13-1.2a.4.4 0 00-.78-.09l-.14 1.3H12.6l.23-2.1a.4.4 0 00-.78-.09l-.25 2.18h-.67a3.34 3.34 0 01-1.43-6.36.4.4 0 00-.33-.71 4.12 4.12 0 00-1.8 1.63 4.88 4.88 0 01-2.18-1.93 1.3 1.3 0 00-2.44.6L1.72 15.2a7.23 7.23 0 01-.78-5.02.4.4 0 10-.77-.16 8.01 8.01 0 00.86 5.56l1.68 3.05-1.23-.14a1.3 1.3 0 00-.28 2.58l2.03.22c-.5.45-.9.86-.86 1.51a1.3 1.3 0 002.28.74 4.89 4.89 0 012.56-1.4A4.13 4.13 0 0011.14 25l12.75-.02a2.68 2.68 0 00.6-5.3zM3.38.84c2.6-.35 4.25.9 4.8 3.05-2.12.58-3.8-1.1-4.8-3.04zM23.17 19.4l-7.72-1.77.75-1.35A4.2 4.2 0 0023.95 15a.4.4 0 00-.77-.16 3.41 3.41 0 01-6.52.6 8.11 8.11 0 00.96-3.86 3.41 3.41 0 015.54 1.86.4.4 0 10.77-.16 4.2 4.2 0 00-6.37-2.63 7.73 7.73 0 00-1.03-3 7.76 7.76 0 00.39-2.45c0-1.8 1.13-3.66 2.81-3.66 1.66 0 2.81 1.83 2.81 3.66a6.94 6.94 0 001.86 4.9c2.04 2.05 1.85 5.87.07 8.12a4.89 4.89 0 01-1.3 1.17zM7.04 21.36a5.7 5.7 0 00-3 1.67.51.51 0 11-.77-.66 5.43 5.43 0 011.19-1.03.4.4 0 00-.17-.72l-3-.33a.51.51 0 11.1-1.02h.02l2.72.3c.12 0 .5.16.67-.18a.4.4 0 00-.07-.45 5.43 5.43 0 01-.93-1.26A.51.51 0 014 17a.5.5 0 01.69.21 5.68 5.68 0 002.55 2.28 4.17 4.17 0 00-.21 1.88zm0 0"/></svg>