<svg xmlns="http://www.w3.org/2000/svg" viewBox="0 0 36.81 23.3"><defs/><g data-name="Group 27"><g data-name="Group 26"><path d="M34.3 8.31a18.43 18.43 0 00-6.08-3.48A20.04 20.04 0 0024.94 4 12.18 12.18 0 0018.42.06a2.08 2.08 0 00-2.55 2.03v2.96a25.8 25.8 0 00-7.77 5.6 7.04 7.04 0 00-1.8-3.63A8.24 8.24 0 00.75 5.04.78.78 0 000 5.8 8.24 8.24 0 002 11.34a5.87 5.87 0 001.7 1.17 6.02 6.02 0 00-1.7 1.17A8.25 8.25 0 000 19.22a.78.78 0 00.75.75h.12A8.13 8.13 0 006.3 18a7.09 7.09 0 001.8-3.69 28.04 28.04 0 005.13 4.2v2.71a2.09 2.09 0 002.08 2.09 2.1 2.1 0 00.6-.09 11.78 11.78 0 003.96-2.12 13.03 13.03 0 001.89.14 19.52 19.52 0 006.3-1.06c4.82-1.64 8.73-5.1 8.73-7.7.02-1.24-.87-2.71-2.49-4.16zM3.08 10.24a6.09 6.09 0 01-1.49-3.6 6.06 6.06 0 013.6 1.48 6.01 6.01 0 011.49 3.55 5.9 5.9 0 01-3.6-1.43zM5.2 16.9a6.08 6.08 0 01-3.6 1.48 6.1 6.1 0 011.48-3.6A6.1 6.1 0 016.7 13.3a6.06 6.06 0 01-1.49 3.6zM17.42 2.09a.53.53 0 01.2-.42.51.51 0 01.45-.1 10.86 10.86 0 014.4 2.17l-.7-.01a13.9 13.9 0 00-4.35.72zm-1.94 19.63a.53.53 0 01-.48-.08.52.52 0 01-.21-.43v-1.83a17.75 17.75 0 003.06 1.25 9.79 9.79 0 01-2.37 1.09zm6.29-2.05a11.6 11.6 0 01-1.98-.18 15.86 15.86 0 01-5.38-2.1 26.8 26.8 0 01-5.88-4.91 24.72 24.72 0 018.4-6.2h.02a12.85 12.85 0 014.82-1 17.6 17.6 0 012.64.2 18.27 18.27 0 012 .42 10.15 10.15 0 00-2.66 6.75 9.98 9.98 0 002.57 6.42 17.78 17.78 0 01-4.55.6zm6.22-1.12a8.33 8.33 0 01-2.69-5.9 8.5 8.5 0 012.8-6.2c4.45 1.65 7.16 4.6 7.16 6.02 0 1.46-2.76 4.42-7.27 6.08z" data-name="Path 21"/></g></g><g data-name="Group 29"><g data-name="Group 28"><path d="M30.65 11.49a.8.8 0 00-.8.8v.36a.8.8 0 101.6 0v-.36a.8.8 0 00-.8-.8z" data-name="Path 22"/></g></g><g data-name="Group 31"><g data-name="Group 30"><path d="M22.83 7.24a.8.8 0 00-1.14.03 5.5 5.5 0 00-.22.25.8.8 0 101.23 1.04c.05-.06.1-.13.16-.18a.8.8 0 00-.03-1.14z" data-name="Path 23"/></g></g><g data-name="Group 33"><g data-name="Group 32"><path d="M22.76 16.83a6.59 6.59 0 01-1.4-4.28 7.58 7.58 0 01.47-2.7.8.8 0 00-1.5-.58 9.2 9.2 0 00-.58 3.28 8.2 8.2 0 001.8 5.33.8.8 0 101.21-1.05z" data-name="Path 24"/></g></g></svg>